<svg width="11" height="3" viewBox="0 0 11 3" fill="none" xmlns="http://www.w3.org/2000/svg">
<path d="M10.1042 1.5C10.1042 1.6956 9.9456 1.85417 9.75 1.85417C9.5544 1.85417 9.39583 1.6956 9.39583 1.5C9.39583 1.3044 9.5544 1.14584 9.75 1.14584V1.14584C9.9456 1.14584 10.1042 1.3044 10.1042 1.5" stroke="#DCD9D9" stroke-width="1.5" stroke-linecap="round" stroke-linejoin="round"/>
<path d="M5.85417 1.5C5.85417 1.6956 5.6956 1.85417 5.5 1.85417C5.3044 1.85417 5.14583 1.6956 5.14583 1.5C5.14583 1.3044 5.3044 1.14584 5.5 1.14584V1.14584C5.6956 1.14584 5.85417 1.3044 5.85417 1.5" stroke="#DCD9D9" stroke-width="1.5" stroke-linecap="round" stroke-linejoin="round"/>
<path d="M1.60417 1.5C1.60417 1.6956 1.4456 1.85417 1.25 1.85417C1.0544 1.85417 0.895833 1.6956 0.895833 1.5C0.895833 1.3044 1.0544 1.14584 1.25 1.14584V1.14584C1.4456 1.14584 1.60417 1.3044 1.60417 1.5" stroke="#DCD9D9" stroke-width="1.5" stroke-linecap="round" stroke-linejoin="round"/>
</svg>
